<svg xmlns="http://www.w3.org/2000/svg" viewBox="0 0 512 512" width="512" height="512" shape-rendering="crispEdges">
  <!-- Film Camera logo (2026-10-08 phosphor-HUD rebrand): a 16×16 pixel-art camera drawn in
       glowing phosphor green on black inside viewfinder corner brackets — the app's on-screen
       display look. Full-bleed (iOS rounds the corners itself). Regenerate icon-180.png /
       icon-512.png from this file if it changes. -->
  <defs>
    <filter id="glow" x="-20%" y="-20%" width="140%" height="140%">
      <feGaussianBlur stdDeviation="7" result="b"/>
      <feMerge><feMergeNode in="b"/><feMergeNode in="SourceGraphic"/></feMerge>
    </filter>
  </defs>
  <rect width="512" height="512" fill="#030503"/>
  <g filter="url(#glow)">
    <path d="M56 128V56H128 M456 128V56H384 M456 384V456H384 M56 384V456H128" fill="none" stroke="#46f27a" stroke-width="10"/>
    <g transform="translate(64 64) scale(0.75)">
      <rect x="128" y="144" width="32" height="32" fill="#46f27a"/>
      <rect x="160" y="144" width="32" height="32" fill="#46f27a"/>
      <rect x="192" y="144" width="32" height="32" fill="#46f27a"/>
      <rect x="320" y="144" width="32" height="32" fill="#46f27a"/>
      <rect x="352" y="144" width="32" height="32" fill="#46f27a"/>
      <rect x="64" y="176" width="32" height="32" fill="#46f27a"/>
      <rect x="96" y="176" width="32" height="32" fill="#46f27a"/>
      <rect x="128" y="176" width="32" height="32" fill="#46f27a"/>
      <rect x="160" y="176" width="32" height="32" fill="#46f27a"/>
      <rect x="192" y="176" width="32" height="32" fill="#46f27a"/>
      <rect x="224" y="176" width="32" height="32" fill="#46f27a"/>
      <rect x="256" y="176" width="32" height="32" fill="#46f27a"/>
      <rect x="288" y="176" width="32" height="32" fill="#46f27a"/>
      <rect x="320" y="176" width="32" height="32" fill="#46f27a"/>
      <rect x="352" y="176" width="32" height="32" fill="#46f27a"/>
      <rect x="384" y="176" width="32" height="32" fill="#46f27a"/>
      <rect x="416" y="176" width="32" height="32" fill="#46f27a"/>
      <rect x="64" y="208" width="32" height="32" fill="#46f27a"/>
      <rect x="160" y="208" width="32" height="32" fill="#46f27a"/>
      <rect x="192" y="208" width="32" height="32" fill="#46f27a"/>
      <rect x="320" y="208" width="32" height="32" fill="#46f27a"/>
      <rect x="352" y="208" width="32" height="32" fill="#46f27a"/>
      <rect x="384" y="208" width="32" height="32" fill="#46f27a"/>
      <rect x="416" y="208" width="32" height="32" fill="#46f27a"/>
      <rect x="64" y="240" width="32" height="32" fill="#46f27a"/>
      <rect x="96" y="240" width="32" height="32" fill="#46f27a"/>
      <rect x="128" y="240" width="32" height="32" fill="#46f27a"/>
      <rect x="160" y="240" width="32" height="32" fill="#46f27a"/>
      <rect x="224" y="240" width="32" height="32" fill="#46f27a"/>
      <rect x="256" y="240" width="32" height="32" fill="#46f27a"/>
      <rect x="288" y="240" width="32" height="32" fill="#46f27a"/>
      <rect x="352" y="240" width="32" height="32" fill="#46f27a"/>
      <rect x="384" y="240" width="32" height="32" fill="#46f27a"/>
      <rect x="416" y="240" width="32" height="32" fill="#46f27a"/>
      <rect x="64" y="272" width="32" height="32" fill="#46f27a"/>
      <rect x="96" y="272" width="32" height="32" fill="#46f27a"/>
      <rect x="128" y="272" width="32" height="32" fill="#46f27a"/>
      <rect x="160" y="272" width="32" height="32" fill="#46f27a"/>
      <rect x="224" y="272" width="32" height="32" fill="#46f27a"/>
      <rect x="256" y="272" width="32" height="32" fill="#46f27a"/>
      <rect x="288" y="272" width="32" height="32" fill="#46f27a"/>
      <rect x="352" y="272" width="32" height="32" fill="#46f27a"/>
      <rect x="384" y="272" width="32" height="32" fill="#46f27a"/>
      <rect x="416" y="272" width="32" height="32" fill="#46f27a"/>
      <rect x="64" y="304" width="32" height="32" fill="#46f27a"/>
      <rect x="96" y="304" width="32" height="32" fill="#46f27a"/>
      <rect x="128" y="304" width="32" height="32" fill="#46f27a"/>
      <rect x="160" y="304" width="32" height="32" fill="#46f27a"/>
      <rect x="224" y="304" width="32" height="32" fill="#46f27a"/>
      <rect x="256" y="304" width="32" height="32" fill="#46f27a"/>
      <rect x="288" y="304" width="32" height="32" fill="#46f27a"/>
      <rect x="352" y="304" width="32" height="32" fill="#46f27a"/>
      <rect x="384" y="304" width="32" height="32" fill="#46f27a"/>
      <rect x="416" y="304" width="32" height="32" fill="#46f27a"/>
      <rect x="64" y="336" width="32" height="32" fill="#46f27a"/>
      <rect x="96" y="336" width="32" height="32" fill="#46f27a"/>
      <rect x="128" y="336" width="32" height="32" fill="#46f27a"/>
      <rect x="160" y="336" width="32" height="32" fill="#46f27a"/>
      <rect x="192" y="336" width="32" height="32" fill="#46f27a"/>
      <rect x="320" y="336" width="32" height="32" fill="#46f27a"/>
      <rect x="352" y="336" width="32" height="32" fill="#46f27a"/>
      <rect x="384" y="336" width="32" height="32" fill="#46f27a"/>
      <rect x="416" y="336" width="32" height="32" fill="#46f27a"/>
      <rect x="64" y="368" width="32" height="32" fill="#46f27a"/>
      <rect x="96" y="368" width="32" height="32" fill="#46f27a"/>
      <rect x="128" y="368" width="32" height="32" fill="#46f27a"/>
      <rect x="160" y="368" width="32" height="32" fill="#46f27a"/>
      <rect x="192" y="368" width="32" height="32" fill="#46f27a"/>
      <rect x="224" y="368" width="32" height="32" fill="#46f27a"/>
      <rect x="256" y="368" width="32" height="32" fill="#46f27a"/>
      <rect x="288" y="368" width="32" height="32" fill="#46f27a"/>
      <rect x="320" y="368" width="32" height="32" fill="#46f27a"/>
      <rect x="352" y="368" width="32" height="32" fill="#46f27a"/>
      <rect x="384" y="368" width="32" height="32" fill="#46f27a"/>
      <rect x="416" y="368" width="32" height="32" fill="#46f27a"/>
    </g>
  </g>
</svg>
